<svg width="175" height="78" viewBox="0 0 175 78" fill="none" xmlns="http://www.w3.org/2000/svg">
<path d="M40.4015 8.41704L14.956 30.5141L16.6988 32.5633L30.2929 21.3L31.5658 22.4805L35.8394 19.1864C43.4242 12.8108 41.394 8.50406 40.4015 8.41704Z" fill="white"/>
<path d="M18.8976 10.6723L24.2967 15.2107L23.1703 16.5554L16.1414 10.647L14.6127 12.472L21.6417 18.3804L20.5152 19.7252L15.1161 15.1868C14.8433 14.9575 14.3527 14.49 13.6445 13.7845C12.9018 14.5668 12.3932 15.1219 12.1186 15.4497L20.0102 22.0832C21.3489 23.2085 23.6918 22.4925 24.8152 21.1513L38.6133 32.7253L40.287 30.8338L26.5693 19.1944C27.6927 17.8532 27.8658 15.4283 26.5271 14.303L18.6355 7.66946C18.3659 7.99123 17.8951 8.58208 17.223 9.442L18.8976 10.6723Z" fill="white"/>
<path fill-rule="evenodd" clip-rule="evenodd" d="M54.3779 29.6867V8.62144H57.1606V19.0679L67.6028 8.62144H71.3752L62.5538 17.1567L60.6031 19.0247L57.1606 22.3871V29.6867H54.3779ZM63.9462 19.0679L71.7625 29.6867H68.0905L61.8812 21.091L63.9462 19.0679ZM74.307 29.6867V8.62144H77.1614L88.206 25.1604V8.62144H90.874V29.6867H88.0196L76.9749 13.1334V29.6867H74.307ZM96.2728 29.6867V8.62144H99.0555V29.6867H96.2728ZM114.05 21.4244V18.9529L122.958 18.9385V26.7554C121.59 27.8474 120.18 28.6689 118.726 29.2197C117.273 29.7705 115.781 30.0459 114.251 30.0459C112.186 30.0459 110.309 29.6029 108.621 28.7168C106.933 27.8307 105.659 26.5494 104.799 24.873C103.938 23.1966 103.508 21.3238 103.508 19.2547C103.508 17.2046 103.936 15.2912 104.791 13.5142C105.647 11.7372 106.878 10.4176 108.485 9.55544C110.091 8.69328 111.942 8.26221 114.036 8.26221C115.556 8.26221 116.931 8.50888 118.16 9.00222C119.389 9.49557 120.352 10.1829 121.05 11.0642C121.748 11.9455 122.279 13.095 122.642 14.5128L120.132 15.2025C119.817 14.1296 119.424 13.2866 118.956 12.6736C118.487 12.0605 117.818 11.5695 116.948 11.2007C116.078 10.8319 115.112 10.6475 114.05 10.6475C112.779 10.6475 111.679 10.8415 110.751 11.2294C109.824 11.6174 109.075 12.1275 108.506 12.7598C107.938 13.392 107.495 14.0865 107.18 14.8433C106.644 16.1461 106.376 17.5591 106.376 19.0822C106.376 20.9598 106.699 22.5308 107.345 23.7953C107.99 25.0598 108.93 25.9986 110.163 26.6117C111.397 27.2248 112.707 27.5313 114.093 27.5313C115.298 27.5313 116.474 27.299 117.622 26.8344C118.769 26.3698 119.64 25.8741 120.232 25.3472V21.4244H114.05ZM127.396 29.6867V8.62144H130.178V17.2717H141.108V8.62144H143.891V29.6867H141.108V19.7576H130.178V29.6867H127.396ZM154.124 29.6867V11.1073H147.196V8.62144H163.863V11.1073H156.906V29.6867H154.124Z" fill="white"/>
<path fill-rule="evenodd" clip-rule="evenodd" d="M72.5571 70.2073H63.5997C65.2103 66.3894 61.6064 63.712 59.6793 63.8328C59.887 60.278 58.2689 57.8835 54.8251 56.6493L54.8925 42.0409C54.8925 39.6669 54.8122 38.0171 54.5713 35.7236C56.4582 35.8443 57.4619 35.8443 60.9547 35.8443H72.1155C78.9806 35.8443 82.8348 38.9426 82.8348 44.4954C82.8348 47.1913 82.072 49.163 80.4661 50.5311C79.5829 51.3358 78.7398 51.7382 76.8529 52.3418C79.1011 52.7844 80.2252 53.227 81.4296 54.3134C83.1961 55.8022 84.0793 57.9751 84.0793 60.7917C84.0793 66.8676 80.0245 70.2073 72.5571 70.2073ZM64.5277 49.002H70.5498C72.1557 49.002 73.1593 47.9559 73.1593 46.3463C73.1593 44.7368 72.1958 43.8114 70.4695 43.8114H64.5277V49.002ZM64.5277 62.1598H70.9111C72.8382 62.1598 74.0426 60.9929 74.0426 59.1017C74.0426 57.2105 72.8382 56.0436 70.871 56.0436H64.5277V62.1598ZM88.723 35.8443C89.004 37.655 89.0442 38.8621 89.0442 42.2823V63.7693C89.0442 66.7469 88.9639 68.4771 88.723 70.2073H99.2415C99.0006 68.4369 98.9203 66.7871 98.9203 63.7693V42.2823C98.9203 39.0231 99.0006 37.6147 99.2415 35.8443H88.723ZM123.878 44.4149H128.134C131.025 44.4149 132.55 44.4954 134.598 44.6966V35.5626C132.59 35.7638 130.864 35.8443 128.134 35.8443H109.546C107.097 35.8443 105.29 35.7638 103.203 35.5626V44.6966C105.25 44.4954 107.017 44.4149 109.626 44.4149H113.962V63.6083C113.962 66.264 113.882 68.115 113.641 70.2073H124.2C123.959 68.0747 123.878 66.2238 123.878 63.6083V44.4149ZM148.555 61.8379V56.8082H156.424C159.395 56.8082 161.041 56.8886 162.968 57.0898V48.3985C160.68 48.5997 158.994 48.6801 156.424 48.6801H148.595V44.1735H158.191C161.081 44.1735 162.727 44.254 164.654 44.4552V35.5626C162.406 35.7638 160.68 35.8443 158.191 35.8443H144.942C141.449 35.8443 140.446 35.8443 138.559 35.7236C138.8 37.655 138.88 39.2243 138.88 42.0409V64.0912C138.88 67.1493 138.8 68.5978 138.559 70.3281C140.486 70.2073 141.53 70.2073 144.982 70.2073H158.713C161.683 70.2073 163.329 70.2878 165.176 70.489V61.5562C163.249 61.7574 161.724 61.8379 158.793 61.8379H148.555Z" fill="white"/>
<path d="M40.9725 41.9281L45.1193 38.1742V36.1772L39.5614 40.138L36.9447 44.6631H24.7607V46.4843L26.519 48.2717L28.9076 70.3679H40.9725L43.3612 48.2717L45.1193 46.4843V44.6631H40.2308L40.9725 41.9281Z" fill="white"/>
<path d="M25.7442 59.4117H10.3751L9.66992 61.1462L10.3751 62.8807H26.1294L25.7442 59.4117Z" fill="white"/>
<path d="M24.6663 51.8046H16.2439C13.3376 51.8046 10.9814 54.1569 10.9814 57.0589V57.6824H25.377L24.6663 51.8046Z" fill="white"/>
<path d="M10.9814 65.2336C10.9814 68.1354 13.3376 70.4879 16.2439 70.4879H25.2158C25.7297 70.4879 26.5665 70.2439 27.0361 70.1066L26.407 64.6101L10.9814 64.61V65.2336Z" fill="white"/>
<path d="M173.722 1H1V76.978H173.722V1Z" stroke="#F5F5F5" stroke-width="2"/>
</svg>
